<?xml version="1.0" standalone="no"?>
<!DOCTYPE svg PUBLIC "-//W3C//DTD SVG 1.1//EN" "http://www.w3.org/Graphics/SVG/1.1/DTD/svg11.dtd">
<svg width="253mm" height="102mm" viewBox="-3 -61 253 102" xmlns="http://www.w3.org/2000/svg" version="1.1">
<title>OpenSCAD Model</title>
<path d="
M -3,40.8151 L 250,40.8151 L 250,-60.5919 L -3,-60.5919 z
M 1.25,35.5151 L 1.30139,35.1906 L 1.45053,34.8979 L 1.68283,34.6656 L 1.97553,34.5165 L 2.3,34.4651
 L 2.62447,34.5165 L 2.91717,34.6656 L 3.14947,34.8979 L 3.29861,35.1906 L 3.35,35.5151 L 3.29861,35.8396
 L 3.14947,36.1323 L 2.91717,36.3646 L 2.62447,36.5137 L 2.3,36.5651 L 1.97553,36.5137 L 1.68283,36.3646
 L 1.45053,36.1323 L 1.30139,35.8396 z
M 1.25,-55.7384 L 1.30139,-56.0629 L 1.45053,-56.3556 L 1.68283,-56.5879 L 1.97553,-56.737 L 2.3,-56.7884
 L 2.62447,-56.737 L 2.91717,-56.5879 L 3.14947,-56.3556 L 3.29861,-56.0629 L 3.35,-55.7384 L 3.29861,-55.4139
 L 3.14947,-55.1212 L 2.91717,-54.8889 L 2.62447,-54.7398 L 2.3,-54.6884 L 1.97553,-54.7398 L 1.68283,-54.8889
 L 1.45053,-55.1212 L 1.30139,-55.4139 z
M 74.95,1 L 75.0014,0.675531 L 75.1505,0.382825 L 75.3828,0.150532 L 75.6755,0.00139046 L 76,-0.0499992
 L 76.3245,0.00139046 L 76.6172,0.150532 L 76.8495,0.382825 L 76.9986,0.675531 L 77.05,1 L 76.9986,1.32447
 L 76.8495,1.61717 L 76.6172,1.84947 L 76.3245,1.99861 L 76,2.05 L 75.6755,1.99861 L 75.3828,1.84947
 L 75.1505,1.61717 L 75.0014,1.32447 z
M 74.95,-20 L 75.0014,-20.3245 L 75.1505,-20.6172 L 75.3828,-20.8495 L 75.6755,-20.9986 L 76,-21.05
 L 76.3245,-20.9986 L 76.6172,-20.8495 L 76.8495,-20.6172 L 76.9986,-20.3245 L 77.05,-20 L 76.9986,-19.6755
 L 76.8495,-19.3828 L 76.6172,-19.1505 L 76.3245,-19.0014 L 76,-18.95 L 75.6755,-19.0014 L 75.3828,-19.1505
 L 75.1505,-19.3828 L 75.0014,-19.6755 z
M 122.45,35.5151 L 122.501,35.1906 L 122.651,34.8979 L 122.883,34.6656 L 123.176,34.5165 L 123.5,34.4651
 L 123.824,34.5165 L 124.117,34.6656 L 124.349,34.8979 L 124.499,35.1906 L 124.55,35.5151 L 124.499,35.8396
 L 124.349,36.1323 L 124.117,36.3646 L 123.824,36.5137 L 123.5,36.5651 L 123.176,36.5137 L 122.883,36.3646
 L 122.651,36.1323 L 122.501,35.8396 z
M 122.45,-55.7384 L 122.501,-56.0629 L 122.651,-56.3556 L 122.883,-56.5879 L 123.176,-56.737 L 123.5,-56.7884
 L 123.824,-56.737 L 124.117,-56.5879 L 124.349,-56.3556 L 124.499,-56.0629 L 124.55,-55.7384 L 124.499,-55.4139
 L 124.349,-55.1212 L 124.117,-54.8889 L 123.824,-54.7398 L 123.5,-54.6884 L 123.176,-54.7398 L 122.883,-54.8889
 L 122.651,-55.1212 L 122.501,-55.4139 z
M 169,-55.0384 L 169.019,-55.2335 L 169.038,-55.4286 L 169.095,-55.6162 L 169.152,-55.8038 L 169.245,-55.9766
 L 169.337,-56.1495 L 169.461,-56.3011 L 169.586,-56.4526 L 169.889,-56.7013 L 170.235,-56.8862 L 170.61,-57
 L 171,-57.0384 L 171.195,-57.0192 L 171.39,-57 L 171.578,-56.9431 L 171.765,-56.8862 L 171.938,-56.7937
 L 172.111,-56.7013 L 172.263,-56.577 L 172.414,-56.4526 L 172.663,-56.1495 L 172.848,-55.8038 L 172.962,-55.4286
 L 172.981,-55.2335 L 173,-55.0384 L 172.962,-54.6482 L 172.848,-54.273 L 172.663,-53.9273 L 172.539,-53.7757
 L 172.414,-53.6242 L 172.263,-53.4998 L 172.111,-53.3755 L 171.938,-53.2831 L 171.765,-53.1906 L 171.578,-53.1337
 L 171.39,-53.0768 L 171,-53.0384 L 170.61,-53.0768 L 170.235,-53.1906 L 169.889,-53.3755 L 169.586,-53.6242
 L 169.337,-53.9273 L 169.245,-54.1001 L 169.152,-54.273 L 169.038,-54.6482 z
M 169.95,1 L 170.001,0.675531 L 170.151,0.382825 L 170.383,0.150532 L 170.676,0.00139046 L 171,-0.0499992
 L 171.324,0.00139046 L 171.617,0.150532 L 171.849,0.382825 L 171.999,0.675531 L 172.05,1 L 171.999,1.32447
 L 171.849,1.61717 L 171.617,1.84947 L 171.324,1.99861 L 171,2.05 L 170.676,1.99861 L 170.383,1.84947
 L 170.151,1.61717 L 170.001,1.32447 z
M 169.95,-20 L 170.001,-20.3245 L 170.151,-20.6172 L 170.383,-20.8495 L 170.676,-20.9986 L 171,-21.05
 L 171.324,-20.9986 L 171.617,-20.8495 L 171.849,-20.6172 L 171.999,-20.3245 L 172.05,-20 L 171.999,-19.6755
 L 171.849,-19.3828 L 171.617,-19.1505 L 171.324,-19.0014 L 171,-18.95 L 170.676,-19.0014 L 170.383,-19.1505
 L 170.151,-19.3828 L 170.001,-19.6755 z
M 243.65,35.5151 L 243.701,35.1906 L 243.851,34.8979 L 244.083,34.6656 L 244.376,34.5165 L 244.7,34.4651
 L 245.024,34.5165 L 245.317,34.6656 L 245.549,34.8979 L 245.699,35.1906 L 245.75,35.5151 L 245.699,35.8396
 L 245.549,36.1323 L 245.317,36.3646 L 245.024,36.5137 L 244.7,36.5651 L 244.376,36.5137 L 244.083,36.3646
 L 243.851,36.1323 L 243.701,35.8396 z
M 243.65,-55.7384 L 243.701,-56.0629 L 243.851,-56.3556 L 244.083,-56.5879 L 244.376,-56.737 L 244.7,-56.7884
 L 245.024,-56.737 L 245.317,-56.5879 L 245.549,-56.3556 L 245.699,-56.0629 L 245.75,-55.7384 L 245.699,-55.4139
 L 245.549,-55.1212 L 245.317,-54.8889 L 245.024,-54.7398 L 244.7,-54.6884 L 244.376,-54.7398 L 244.083,-54.8889
 L 243.851,-55.1212 L 243.701,-55.4139 z
" stroke="black" fill="lightgray" stroke-width="0.5"/>
</svg>
